<svg width="373" height="30" viewBox="0 0 373 30" fill="none" xmlns="http://www.w3.org/2000/svg">
<path d="M195 15C195 6.71573 201.716 0 210 0H338V30H210C201.716 30 195 23.2843 195 15V15Z" fill="#00BFB3"/>
<path d="M373 15C373 23.2843 366.284 30 358 30L340 30L340 -2.88495e-06L358 -1.31134e-06C366.284 -5.87108e-07 373 6.71573 373 15V15Z" fill="#00BFB3"/>
<path d="M211.295 19V10.2727H216.707V11.4062H212.612V14.0653H216.319V15.1946H212.612V19H211.295ZM219.498 10.2727V19H218.224V10.2727H219.498ZM224.033 19.1321C223.388 19.1321 222.833 18.9943 222.367 18.7188C221.904 18.4403 221.546 18.0497 221.293 17.5469C221.043 17.0412 220.918 16.4489 220.918 15.7699C220.918 15.0994 221.043 14.5085 221.293 13.9972C221.546 13.4858 221.898 13.0866 222.35 12.7997C222.804 12.5128 223.336 12.3693 223.944 12.3693C224.313 12.3693 224.671 12.4304 225.017 12.5526C225.364 12.6747 225.675 12.8665 225.951 13.1278C226.226 13.3892 226.444 13.7287 226.603 14.1463C226.762 14.5611 226.841 15.0653 226.841 15.6591V16.1108H221.638V15.1562H225.593C225.593 14.821 225.525 14.5241 225.388 14.2656C225.252 14.0043 225.06 13.7983 224.813 13.6477C224.569 13.4972 224.282 13.4219 223.952 13.4219C223.594 13.4219 223.282 13.5099 223.015 13.6861C222.75 13.8594 222.546 14.0866 222.401 14.3679C222.259 14.6463 222.188 14.9489 222.188 15.2756V16.0213C222.188 16.4588 222.265 16.831 222.418 17.1378C222.574 17.4446 222.792 17.679 223.07 17.8409C223.348 18 223.674 18.0795 224.046 18.0795C224.287 18.0795 224.507 18.0455 224.706 17.9773C224.905 17.9062 225.077 17.8011 225.222 17.6619C225.367 17.5227 225.478 17.3509 225.554 17.1463L226.76 17.3636C226.664 17.7187 226.49 18.0298 226.24 18.2969C225.993 18.5611 225.682 18.767 225.307 18.9148C224.935 19.0597 224.51 19.1321 224.033 19.1321ZM231.076 19.1321C230.431 19.1321 229.876 18.9943 229.41 18.7188C228.947 18.4403 228.589 18.0497 228.336 17.5469C228.086 17.0412 227.961 16.4489 227.961 15.7699C227.961 15.0994 228.086 14.5085 228.336 13.9972C228.589 13.4858 228.941 13.0866 229.393 12.7997C229.847 12.5128 230.379 12.3693 230.987 12.3693C231.356 12.3693 231.714 12.4304 232.06 12.5526C232.407 12.6747 232.718 12.8665 232.994 13.1278C233.269 13.3892 233.487 13.7287 233.646 14.1463C233.805 14.5611 233.884 15.0653 233.884 15.6591V16.1108H228.681V15.1562H232.636C232.636 14.821 232.567 14.5241 232.431 14.2656C232.295 14.0043 232.103 13.7983 231.856 13.6477C231.612 13.4972 231.325 13.4219 230.995 13.4219C230.637 13.4219 230.325 13.5099 230.058 13.6861C229.793 13.8594 229.589 14.0866 229.444 14.3679C229.302 14.6463 229.231 14.9489 229.231 15.2756V16.0213C229.231 16.4588 229.308 16.831 229.461 17.1378C229.617 17.4446 229.835 17.679 230.113 17.8409C230.391 18 230.717 18.0795 231.089 18.0795C231.33 18.0795 231.55 18.0455 231.749 17.9773C231.948 17.9062 232.12 17.8011 232.265 17.6619C232.41 17.5227 232.521 17.3509 232.597 17.1463L233.803 17.3636C233.707 17.7187 233.533 18.0298 233.283 18.2969C233.036 18.5611 232.725 18.767 232.35 18.9148C231.978 19.0597 231.553 19.1321 231.076 19.1321ZM238.353 12.4545V13.4773H234.778V12.4545H238.353ZM235.737 10.8864H237.011V17.0781C237.011 17.3253 237.048 17.5114 237.122 17.6364C237.196 17.7585 237.291 17.8423 237.407 17.8878C237.527 17.9304 237.656 17.9517 237.795 17.9517C237.897 17.9517 237.987 17.9446 238.064 17.9304C238.14 17.9162 238.2 17.9048 238.243 17.8963L238.473 18.9489C238.399 18.9773 238.294 19.0057 238.157 19.0341C238.021 19.0653 237.85 19.0824 237.646 19.0852C237.311 19.0909 236.998 19.0312 236.708 18.9062C236.419 18.7812 236.184 18.5881 236.005 18.3267C235.826 18.0653 235.737 17.7372 235.737 17.3423V10.8864ZM243.397 14.7599V15.8636H239.527V14.7599H243.397ZM245.095 19V12.4545H246.318V13.5199H246.399C246.535 13.1591 246.758 12.8778 247.068 12.6761C247.377 12.4716 247.748 12.3693 248.18 12.3693C248.618 12.3693 248.984 12.4716 249.279 12.6761C249.578 12.8807 249.798 13.1619 249.94 13.5199H250.008C250.164 13.1705 250.413 12.892 250.754 12.6847C251.095 12.4744 251.501 12.3693 251.973 12.3693C252.566 12.3693 253.051 12.5554 253.426 12.9276C253.804 13.2997 253.993 13.8608 253.993 14.6108V19H252.718V14.7301C252.718 14.2869 252.598 13.9659 252.356 13.767C252.115 13.5682 251.826 13.4688 251.491 13.4688C251.076 13.4688 250.754 13.5966 250.524 13.8523C250.294 14.1051 250.179 14.4304 250.179 14.8281V19H248.909V14.6491C248.909 14.294 248.798 14.0085 248.576 13.7926C248.355 13.5767 248.066 13.4688 247.711 13.4688C247.47 13.4688 247.247 13.5327 247.042 13.6605C246.841 13.7855 246.677 13.9602 246.552 14.1847C246.43 14.4091 246.369 14.669 246.369 14.9645V19H245.095ZM257.605 19.1449C257.19 19.1449 256.815 19.0682 256.48 18.9148C256.145 18.7585 255.879 18.5327 255.683 18.2372C255.49 17.9418 255.393 17.5795 255.393 17.1506C255.393 16.7812 255.464 16.4773 255.607 16.2386C255.749 16 255.94 15.8111 256.182 15.6719C256.423 15.5327 256.693 15.4276 256.991 15.3565C257.29 15.2855 257.594 15.2315 257.903 15.1946C258.295 15.1491 258.614 15.1122 258.858 15.0838C259.102 15.0526 259.28 15.0028 259.391 14.9347C259.501 14.8665 259.557 14.7557 259.557 14.6023V14.5724C259.557 14.2003 259.452 13.9119 259.241 13.7074C259.034 13.5028 258.724 13.4006 258.312 13.4006C257.884 13.4006 257.545 13.4957 257.298 13.6861C257.054 13.8736 256.885 14.0824 256.791 14.3125L255.594 14.0398C255.736 13.642 255.943 13.321 256.216 13.0767C256.491 12.8295 256.808 12.6506 257.166 12.5398C257.524 12.4261 257.901 12.3693 258.295 12.3693C258.557 12.3693 258.834 12.4006 259.126 12.4631C259.422 12.5227 259.697 12.6335 259.953 12.7955C260.212 12.9574 260.423 13.1889 260.588 13.4901C260.753 13.7884 260.835 14.1761 260.835 14.6534V19H259.591V18.1051H259.54C259.457 18.2699 259.334 18.4318 259.169 18.5909C259.004 18.75 258.793 18.8821 258.534 18.9872C258.276 19.0923 257.966 19.1449 257.605 19.1449ZM257.882 18.1222C258.234 18.1222 258.536 18.0526 258.786 17.9134C259.038 17.7741 259.23 17.5923 259.361 17.3679C259.494 17.1406 259.561 16.8977 259.561 16.6392V15.7955C259.516 15.8409 259.428 15.8835 259.297 15.9233C259.169 15.9602 259.023 15.9929 258.858 16.0213C258.693 16.0469 258.533 16.071 258.376 16.0938C258.22 16.1136 258.089 16.1307 257.984 16.1449C257.737 16.1761 257.511 16.2287 257.307 16.3026C257.105 16.3764 256.943 16.483 256.821 16.6222C256.702 16.7585 256.642 16.9403 256.642 17.1676C256.642 17.483 256.759 17.7216 256.991 17.8835C257.224 18.0426 257.521 18.1222 257.882 18.1222ZM263.806 15.1136V19H262.532V12.4545H263.755V13.5199H263.836C263.987 13.1733 264.223 12.8949 264.544 12.6847C264.868 12.4744 265.275 12.3693 265.767 12.3693C266.213 12.3693 266.603 12.4631 266.939 12.6506C267.274 12.8352 267.534 13.1108 267.718 13.4773C267.903 13.8437 267.995 14.2969 267.995 14.8366V19H266.721V14.9901C266.721 14.5156 266.598 14.1449 266.35 13.8778C266.103 13.608 265.764 13.473 265.332 13.473C265.037 13.473 264.774 13.5369 264.544 13.6648C264.316 13.7926 264.136 13.9801 264.002 14.2273C263.872 14.4716 263.806 14.767 263.806 15.1136ZM271.609 19.1449C271.194 19.1449 270.819 19.0682 270.484 18.9148C270.149 18.7585 269.883 18.5327 269.687 18.2372C269.494 17.9418 269.397 17.5795 269.397 17.1506C269.397 16.7812 269.468 16.4773 269.61 16.2386C269.752 16 269.944 15.8111 270.186 15.6719C270.427 15.5327 270.697 15.4276 270.995 15.3565C271.294 15.2855 271.598 15.2315 271.907 15.1946C272.299 15.1491 272.618 15.1122 272.862 15.0838C273.106 15.0526 273.284 15.0028 273.395 14.9347C273.505 14.8665 273.561 14.7557 273.561 14.6023V14.5724C273.561 14.2003 273.456 13.9119 273.245 13.7074C273.038 13.5028 272.728 13.4006 272.316 13.4006C271.887 13.4006 271.549 13.4957 271.302 13.6861C271.058 13.8736 270.889 14.0824 270.795 14.3125L269.598 14.0398C269.74 13.642 269.947 13.321 270.22 13.0767C270.495 12.8295 270.812 12.6506 271.17 12.5398C271.528 12.4261 271.904 12.3693 272.299 12.3693C272.561 12.3693 272.838 12.4006 273.13 12.4631C273.426 12.5227 273.701 12.6335 273.957 12.7955C274.216 12.9574 274.427 13.1889 274.592 13.4901C274.757 13.7884 274.839 14.1761 274.839 14.6534V19H273.595V18.1051H273.544C273.461 18.2699 273.338 18.4318 273.173 18.5909C273.008 18.75 272.797 18.8821 272.538 18.9872C272.279 19.0923 271.97 19.1449 271.609 19.1449ZM271.886 18.1222C272.238 18.1222 272.539 18.0526 272.789 17.9134C273.042 17.7741 273.234 17.5923 273.365 17.3679C273.498 17.1406 273.565 16.8977 273.565 16.6392V15.7955C273.52 15.8409 273.431 15.8835 273.301 15.9233C273.173 15.9602 273.027 15.9929 272.862 16.0213C272.697 16.0469 272.537 16.071 272.38 16.0938C272.224 16.1136 272.093 16.1307 271.988 16.1449C271.741 16.1761 271.515 16.2287 271.311 16.3026C271.109 16.3764 270.947 16.483 270.825 16.6222C270.706 16.7585 270.646 16.9403 270.646 17.1676C270.646 17.483 270.762 17.7216 270.995 17.8835C271.228 18.0426 271.525 18.1222 271.886 18.1222ZM279.281 21.5909C278.761 21.5909 278.313 21.5227 277.938 21.3864C277.566 21.25 277.262 21.0696 277.026 20.8452C276.79 20.6207 276.614 20.375 276.498 20.108L277.593 19.6562C277.67 19.7812 277.772 19.9134 277.9 20.0526C278.031 20.1946 278.207 20.3153 278.428 20.4148C278.653 20.5142 278.941 20.5639 279.293 20.5639C279.776 20.5639 280.175 20.446 280.491 20.2102C280.806 19.9773 280.964 19.6051 280.964 19.0938V17.8068H280.883C280.806 17.946 280.695 18.1009 280.55 18.2713C280.408 18.4418 280.212 18.5895 279.962 18.7145C279.712 18.8395 279.387 18.902 278.987 18.902C278.469 18.902 278.004 18.7812 277.589 18.5398C277.177 18.2955 276.85 17.9361 276.609 17.4616C276.37 16.9844 276.251 16.3977 276.251 15.7017C276.251 15.0057 276.369 14.4091 276.604 13.9119C276.843 13.4148 277.17 13.0341 277.585 12.7699C277.999 12.5028 278.469 12.3693 278.995 12.3693C279.401 12.3693 279.729 12.4375 279.979 12.5739C280.229 12.7074 280.424 12.8636 280.563 13.0426C280.705 13.2216 280.815 13.3793 280.891 13.5156H280.985V12.4545H282.234V19.1449C282.234 19.7074 282.103 20.169 281.842 20.5298C281.58 20.8906 281.227 21.1577 280.781 21.331C280.337 21.5043 279.837 21.5909 279.281 21.5909ZM279.268 17.8452C279.634 17.8452 279.944 17.7599 280.197 17.5895C280.452 17.4162 280.646 17.169 280.776 16.848C280.91 16.5241 280.977 16.1364 280.977 15.6847C280.977 15.2443 280.911 14.8565 280.781 14.5213C280.65 14.1861 280.458 13.9247 280.205 13.7372C279.952 13.5469 279.64 13.4517 279.268 13.4517C278.884 13.4517 278.565 13.5511 278.309 13.75C278.053 13.946 277.86 14.2131 277.729 14.5511C277.602 14.8892 277.538 15.267 277.538 15.6847C277.538 16.1136 277.603 16.4901 277.734 16.8139C277.864 17.1378 278.058 17.3906 278.313 17.5724C278.572 17.7543 278.89 17.8452 279.268 17.8452ZM286.763 19.1321C286.119 19.1321 285.563 18.9943 285.097 18.7188C284.634 18.4403 284.276 18.0497 284.023 17.5469C283.773 17.0412 283.648 16.4489 283.648 15.7699C283.648 15.0994 283.773 14.5085 284.023 13.9972C284.276 13.4858 284.629 13.0866 285.08 12.7997C285.535 12.5128 286.066 12.3693 286.674 12.3693C287.043 12.3693 287.401 12.4304 287.748 12.5526C288.094 12.6747 288.406 12.8665 288.681 13.1278C288.957 13.3892 289.174 13.7287 289.333 14.1463C289.492 14.5611 289.572 15.0653 289.572 15.6591V16.1108H284.369V15.1562H288.323C288.323 14.821 288.255 14.5241 288.119 14.2656C287.982 14.0043 287.79 13.7983 287.543 13.6477C287.299 13.4972 287.012 13.4219 286.683 13.4219C286.325 13.4219 286.012 13.5099 285.745 13.6861C285.481 13.8594 285.276 14.0866 285.131 14.3679C284.989 14.6463 284.918 14.9489 284.918 15.2756V16.0213C284.918 16.4588 284.995 16.831 285.148 17.1378C285.305 17.4446 285.522 17.679 285.8 17.8409C286.079 18 286.404 18.0795 286.776 18.0795C287.018 18.0795 287.238 18.0455 287.437 17.9773C287.636 17.9062 287.808 17.8011 287.952 17.6619C288.097 17.5227 288.208 17.3509 288.285 17.1463L289.491 17.3636C289.394 17.7187 289.221 18.0298 288.971 18.2969C288.724 18.5611 288.413 18.767 288.038 18.9148C287.665 19.0597 287.241 19.1321 286.763 19.1321ZM293.436 19.1278C292.907 19.1278 292.436 18.9929 292.021 18.723C291.609 18.4503 291.285 18.0625 291.049 17.5597C290.816 17.054 290.7 16.4474 290.7 15.7401C290.7 15.0327 290.818 14.4276 291.054 13.9247C291.292 13.4219 291.619 13.0369 292.034 12.7699C292.449 12.5028 292.919 12.3693 293.444 12.3693C293.85 12.3693 294.177 12.4375 294.424 12.5739C294.674 12.7074 294.868 12.8636 295.004 13.0426C295.143 13.2216 295.251 13.3793 295.328 13.5156H295.404V10.2727H296.679V19H295.434V17.9815H295.328C295.251 18.1207 295.14 18.2798 294.995 18.4588C294.853 18.6378 294.657 18.794 294.407 18.9276C294.157 19.0611 293.833 19.1278 293.436 19.1278ZM293.717 18.0412C294.083 18.0412 294.393 17.9446 294.646 17.7514C294.902 17.5554 295.095 17.2841 295.225 16.9375C295.359 16.5909 295.426 16.1875 295.426 15.7273C295.426 15.2727 295.36 14.875 295.23 14.5341C295.099 14.1932 294.907 13.9276 294.654 13.7372C294.402 13.5469 294.089 13.4517 293.717 13.4517C293.333 13.4517 293.014 13.5511 292.758 13.75C292.502 13.9489 292.309 14.2202 292.179 14.5639C292.051 14.9077 291.987 15.2955 291.987 15.7273C291.987 16.1648 292.052 16.5582 292.183 16.9077C292.314 17.2571 292.507 17.5341 292.762 17.7386C293.021 17.9403 293.339 18.0412 293.717 18.0412ZM302.512 19H301.115L304.255 10.2727H305.777L308.917 19H307.52L305.052 11.858H304.984L302.512 19ZM302.747 15.5824H307.281V16.6903H302.747V15.5824ZM310.178 19V10.2727H313.288C313.967 10.2727 314.53 10.3963 314.976 10.6435C315.422 10.8906 315.756 11.2287 315.977 11.6577C316.199 12.0838 316.31 12.5639 316.31 13.098C316.31 13.6349 316.197 14.1179 315.973 14.5469C315.751 14.973 315.416 15.3111 314.967 15.5611C314.521 15.8082 313.96 15.9318 313.284 15.9318H311.145V14.8153H313.165C313.594 14.8153 313.942 14.7415 314.209 14.5938C314.476 14.4432 314.672 14.2386 314.797 13.9801C314.922 13.7216 314.984 13.4276 314.984 13.098C314.984 12.7685 314.922 12.4759 314.797 12.2202C314.672 11.9645 314.474 11.7642 314.205 11.6193C313.938 11.4744 313.585 11.402 313.148 11.402H311.494V19H310.178ZM317.853 10.2727H319.451L322.23 17.0568H322.332L325.11 10.2727H326.708V19H325.456V12.6847H325.375L322.801 18.9872H321.761L319.187 12.6804H319.106V19H317.853V10.2727Z" fill="white"/>
<path fill-rule="evenodd" clip-rule="evenodd" d="M355 30C363.284 30 370 23.2843 370 15C370 6.71573 363.284 0 355 0C346.716 0 340 6.71573 340 15C340 23.2843 346.716 30 355 30Z" fill="#00BFB3"/>
<path d="M346.25 15L352.5 21.25L363.75 10" stroke="white" stroke-width="3"/>
<path d="M0 15C0 6.71573 6.71573 0 15 0H143V30H15C6.71573 30 0 23.2843 0 15V15Z" fill="#00BFB3"/>
<path d="M178 15C178 23.2843 171.284 30 163 30L145 30L145 -2.88495e-06L163 -1.31134e-06C171.284 -5.87108e-07 178 6.71573 178 15V15Z" fill="#00BFB3"/>
<path d="M22.1472 19H20.7495L23.8901 10.2727H25.4114L28.552 19H27.1543L24.687 11.858H24.6188L22.1472 19ZM22.3816 15.5824H26.9157V16.6903H22.3816V15.5824ZM29.8123 19V10.2727H32.9231C33.6021 10.2727 34.1646 10.3963 34.6106 10.6435C35.0566 10.8906 35.3904 11.2287 35.612 11.6577C35.8336 12.0838 35.9444 12.5639 35.9444 13.098C35.9444 13.6349 35.8322 14.1179 35.6078 14.5469C35.3862 14.973 35.051 15.3111 34.6021 15.5611C34.1561 15.8082 33.595 15.9318 32.9189 15.9318H30.7797V14.8153H32.7995C33.2285 14.8153 33.5765 14.7415 33.8436 14.5938C34.1106 14.4432 34.3066 14.2386 34.4316 13.9801C34.5566 13.7216 34.6191 13.4276 34.6191 13.098C34.6191 12.7685 34.5566 12.4759 34.4316 12.2202C34.3066 11.9645 34.1092 11.7642 33.8393 11.6193C33.5723 11.4744 33.22 11.402 32.7825 11.402H31.1291V19H29.8123ZM37.4881 10.2727H39.0861L41.8645 17.0568H41.9668L44.7452 10.2727H46.3432V19H45.0904V12.6847H45.0094L42.4355 18.9872H41.3958L38.8219 12.6804H38.7409V19H37.4881V10.2727ZM56.1934 12.5653C56.1479 12.1619 55.9604 11.8494 55.6309 11.6278C55.3013 11.4034 54.8865 11.2912 54.3865 11.2912C54.0286 11.2912 53.7189 11.348 53.4576 11.4616C53.1962 11.5724 52.9931 11.7259 52.8482 11.9219C52.7061 12.1151 52.6351 12.3352 52.6351 12.5824C52.6351 12.7898 52.6834 12.9687 52.78 13.1193C52.8794 13.2699 53.0087 13.3963 53.1678 13.4986C53.3297 13.598 53.503 13.6818 53.6877 13.75C53.8723 13.8153 54.0499 13.8693 54.2203 13.9119L55.0726 14.1335C55.351 14.2017 55.6365 14.294 55.9292 14.4105C56.2218 14.527 56.4931 14.6804 56.7431 14.8707C56.9931 15.0611 57.1948 15.2969 57.3482 15.5781C57.5044 15.8594 57.5826 16.196 57.5826 16.5881C57.5826 17.0824 57.4547 17.5213 57.199 17.9048C56.9462 18.2884 56.5783 18.5909 56.0953 18.8125C55.6152 19.0341 55.0343 19.1449 54.3525 19.1449C53.699 19.1449 53.1337 19.0412 52.6564 18.8338C52.1792 18.6264 51.8056 18.3324 51.5357 17.9517C51.2658 17.5682 51.1167 17.1136 51.0882 16.5881H52.4093C52.4348 16.9034 52.5371 17.1662 52.7161 17.3764C52.8979 17.5838 53.1294 17.7386 53.4107 17.8409C53.6948 17.9403 54.0059 17.9901 54.3439 17.9901C54.7161 17.9901 55.0471 17.9318 55.3368 17.8153C55.6294 17.696 55.8596 17.5312 56.0272 17.321C56.1948 17.108 56.2786 16.8594 56.2786 16.5753C56.2786 16.3168 56.2047 16.1051 56.057 15.9403C55.9121 15.7756 55.7147 15.6392 55.4647 15.5312C55.2175 15.4233 54.9377 15.3281 54.6252 15.2457L53.5939 14.9645C52.8951 14.7741 52.3411 14.4943 51.932 14.125C51.5257 13.7557 51.3226 13.267 51.3226 12.6591C51.3226 12.1562 51.459 11.7173 51.7317 11.3423C52.0044 10.9673 52.3738 10.6761 52.8397 10.4688C53.3056 10.2585 53.8311 10.1534 54.4164 10.1534C55.0073 10.1534 55.5286 10.2571 55.9803 10.4645C56.4348 10.6719 56.7928 10.9574 57.0542 11.321C57.3155 11.6818 57.4519 12.0966 57.4632 12.5653H56.1934ZM61.8748 19.1321C61.2299 19.1321 60.6745 18.9943 60.2086 18.7188C59.7456 18.4403 59.3876 18.0497 59.1348 17.5469C58.8848 17.0412 58.7598 16.4489 58.7598 15.7699C58.7598 15.0994 58.8848 14.5085 59.1348 13.9972C59.3876 13.4858 59.7399 13.0866 60.1916 12.7997C60.6461 12.5128 61.1774 12.3693 61.7853 12.3693C62.1547 12.3693 62.5126 12.4304 62.8592 12.5526C63.2058 12.6747 63.5169 12.8665 63.7924 13.1278C64.068 13.3892 64.2853 13.7287 64.4444 14.1463C64.6035 14.5611 64.6831 15.0653 64.6831 15.6591V16.1108H59.4799V15.1562H63.4345C63.4345 14.821 63.3663 14.5241 63.2299 14.2656C63.0936 14.0043 62.9018 13.7983 62.6547 13.6477C62.4103 13.4972 62.1234 13.4219 61.7939 13.4219C61.4359 13.4219 61.1234 13.5099 60.8564 13.6861C60.5922 13.8594 60.3876 14.0866 60.2427 14.3679C60.1007 14.6463 60.0297 14.9489 60.0297 15.2756V16.0213C60.0297 16.4588 60.1064 16.831 60.2598 17.1378C60.416 17.4446 60.6333 17.679 60.9118 17.8409C61.1902 18 61.5154 18.0795 61.8876 18.0795C62.1291 18.0795 62.3493 18.0455 62.5481 17.9773C62.747 17.9062 62.9189 17.8011 63.0637 17.6619C63.2086 17.5227 63.3194 17.3509 63.3961 17.1463L64.6021 17.3636C64.5055 17.7187 64.3322 18.0298 64.0822 18.2969C63.835 18.5611 63.524 18.767 63.149 18.9148C62.7768 19.0597 62.3521 19.1321 61.8748 19.1321ZM66.0968 19V12.4545H67.3283V13.4943H67.3965C67.5158 13.142 67.726 12.8651 68.0272 12.6634C68.3311 12.4588 68.6749 12.3565 69.0584 12.3565C69.138 12.3565 69.2317 12.3594 69.3397 12.3651C69.4505 12.3707 69.5371 12.3778 69.5996 12.3864V13.6051C69.5485 13.5909 69.4576 13.5753 69.3269 13.5582C69.1962 13.5384 69.0655 13.5284 68.9348 13.5284C68.6337 13.5284 68.3652 13.5923 68.1294 13.7202C67.8965 13.8452 67.7118 14.0199 67.5755 14.2443C67.4391 14.4659 67.3709 14.7187 67.3709 15.0028V19H66.0968ZM76.5009 12.4545L74.1273 19H72.7637L70.3858 12.4545H71.7537L73.4114 17.4915H73.4796L75.133 12.4545H76.5009ZM80.2967 19.1321C79.6518 19.1321 79.0964 18.9943 78.6305 18.7188C78.1674 18.4403 77.8095 18.0497 77.5566 17.5469C77.3066 17.0412 77.1816 16.4489 77.1816 15.7699C77.1816 15.0994 77.3066 14.5085 77.5566 13.9972C77.8095 13.4858 78.1618 13.0866 78.6135 12.7997C79.068 12.5128 79.5993 12.3693 80.2072 12.3693C80.5765 12.3693 80.9345 12.4304 81.2811 12.5526C81.6277 12.6747 81.9387 12.8665 82.2143 13.1278C82.4899 13.3892 82.7072 13.7287 82.8663 14.1463C83.0254 14.5611 83.1049 15.0653 83.1049 15.6591V16.1108H77.9018V15.1562H81.8564C81.8564 14.821 81.7882 14.5241 81.6518 14.2656C81.5154 14.0043 81.3237 13.7983 81.0765 13.6477C80.8322 13.4972 80.5453 13.4219 80.2157 13.4219C79.8578 13.4219 79.5453 13.5099 79.2782 13.6861C79.014 13.8594 78.8095 14.0866 78.6646 14.3679C78.5225 14.6463 78.4515 14.9489 78.4515 15.2756V16.0213C78.4515 16.4588 78.5282 16.831 78.6816 17.1378C78.8379 17.4446 79.0552 17.679 79.3336 17.8409C79.612 18 79.9373 18.0795 80.3095 18.0795C80.551 18.0795 80.7711 18.0455 80.97 17.9773C81.1689 17.9062 81.3407 17.8011 81.4856 17.6619C81.6305 17.5227 81.7413 17.3509 81.818 17.1463L83.024 17.3636C82.9274 17.7187 82.7541 18.0298 82.5041 18.2969C82.2569 18.5611 81.9458 18.767 81.5708 18.9148C81.1987 19.0597 80.774 19.1321 80.2967 19.1321ZM84.5186 19V12.4545H85.7502V13.4943H85.8184C85.9377 13.142 86.1479 12.8651 86.449 12.6634C86.753 12.4588 87.0968 12.3565 87.4803 12.3565C87.5598 12.3565 87.6536 12.3594 87.7615 12.3651C87.8723 12.3707 87.959 12.3778 88.0215 12.3864V13.6051C87.9703 13.5909 87.8794 13.5753 87.7488 13.5582C87.6181 13.5384 87.4874 13.5284 87.3567 13.5284C87.0556 13.5284 86.7871 13.5923 86.5513 13.7202C86.3184 13.8452 86.1337 14.0199 85.9973 14.2443C85.861 14.4659 85.7928 14.7187 85.7928 15.0028V19H84.5186ZM92.4022 19V10.2727H93.6763V13.5156H93.753C93.8269 13.3793 93.9334 13.2216 94.0726 13.0426C94.2118 12.8636 94.405 12.7074 94.6522 12.5739C94.8993 12.4375 95.226 12.3693 95.6323 12.3693C96.1607 12.3693 96.6323 12.5028 97.0471 12.7699C97.4618 13.0369 97.7871 13.4219 98.0229 13.9247C98.2615 14.4276 98.3809 15.0327 98.3809 15.7401C98.3809 16.4474 98.263 17.054 98.0272 17.5597C97.7914 18.0625 97.4675 18.4503 97.0556 18.723C96.6436 18.9929 96.1735 19.1278 95.6451 19.1278C95.2473 19.1278 94.9221 19.0611 94.6692 18.9276C94.4192 18.794 94.2232 18.6378 94.0811 18.4588C93.9391 18.2798 93.8297 18.1207 93.753 17.9815H93.6465V19H92.4022ZM93.6507 15.7273C93.6507 16.1875 93.7175 16.5909 93.851 16.9375C93.9846 17.2841 94.1777 17.5554 94.4306 17.7514C94.6834 17.9446 94.9931 18.0412 95.3596 18.0412C95.7402 18.0412 96.0584 17.9403 96.3141 17.7386C96.5698 17.5341 96.763 17.2571 96.8936 16.9077C97.0272 16.5582 97.0939 16.1648 97.0939 15.7273C97.0939 15.2955 97.0286 14.9077 96.8979 14.5639C96.7701 14.2202 96.5769 13.9489 96.3184 13.75C96.0627 13.5511 95.7431 13.4517 95.3596 13.4517C94.9902 13.4517 94.6777 13.5469 94.4221 13.7372C94.1692 13.9276 93.9775 14.1932 93.8468 14.5341C93.7161 14.875 93.6507 15.2727 93.6507 15.7273ZM99.8116 19V12.4545H101.086V19H99.8116ZM100.455 11.4446C100.233 11.4446 100.043 11.3707 99.8841 11.223C99.7278 11.0724 99.6497 10.8935 99.6497 10.6861C99.6497 10.4759 99.7278 10.2969 99.8841 10.1491C100.043 9.99858 100.233 9.9233 100.455 9.9233C100.677 9.9233 100.866 9.99858 101.022 10.1491C101.181 10.2969 101.26 10.4759 101.26 10.6861C101.26 10.8935 101.181 11.0724 101.022 11.223C100.866 11.3707 100.677 11.4446 100.455 11.4446ZM104.074 15.1136V19H102.8V12.4545H104.023V13.5199H104.104C104.254 13.1733 104.49 12.8949 104.811 12.6847C105.135 12.4744 105.543 12.3693 106.034 12.3693C106.48 12.3693 106.871 12.4631 107.206 12.6506C107.541 12.8352 107.801 13.1108 107.986 13.4773C108.171 13.8437 108.263 14.2969 108.263 14.8366V19H106.989V14.9901C106.989 14.5156 106.865 14.1449 106.618 13.8778C106.371 13.608 106.031 13.473 105.6 13.473C105.304 13.473 105.041 13.5369 104.811 13.6648C104.584 13.7926 104.404 13.9801 104.27 14.2273C104.139 14.4716 104.074 14.767 104.074 15.1136ZM111.877 19.1449C111.462 19.1449 111.087 19.0682 110.752 18.9148C110.416 18.7585 110.151 18.5327 109.955 18.2372C109.762 17.9418 109.665 17.5795 109.665 17.1506C109.665 16.7812 109.736 16.4773 109.878 16.2386C110.02 16 110.212 15.8111 110.453 15.6719C110.695 15.5327 110.965 15.4276 111.263 15.3565C111.561 15.2855 111.865 15.2315 112.175 15.1946C112.567 15.1491 112.885 15.1122 113.129 15.0838C113.374 15.0526 113.551 15.0028 113.662 14.9347C113.773 14.8665 113.828 14.7557 113.828 14.6023V14.5724C113.828 14.2003 113.723 13.9119 113.513 13.7074C113.306 13.5028 112.996 13.4006 112.584 13.4006C112.155 13.4006 111.817 13.4957 111.57 13.6861C111.325 13.8736 111.156 14.0824 111.063 14.3125L109.865 14.0398C110.007 13.642 110.215 13.321 110.487 13.0767C110.763 12.8295 111.08 12.6506 111.438 12.5398C111.796 12.4261 112.172 12.3693 112.567 12.3693C112.828 12.3693 113.105 12.4006 113.398 12.4631C113.693 12.5227 113.969 12.6335 114.225 12.7955C114.483 12.9574 114.695 13.1889 114.86 13.4901C115.024 13.7884 115.107 14.1761 115.107 14.6534V19H113.862V18.1051H113.811C113.729 18.2699 113.605 18.4318 113.441 18.5909C113.276 18.75 113.064 18.8821 112.806 18.9872C112.547 19.0923 112.237 19.1449 111.877 19.1449ZM112.154 18.1222C112.506 18.1222 112.807 18.0526 113.057 17.9134C113.31 17.7741 113.502 17.5923 113.632 17.3679C113.766 17.1406 113.833 16.8977 113.833 16.6392V15.7955C113.787 15.8409 113.699 15.8835 113.568 15.9233C113.441 15.9602 113.294 15.9929 113.129 16.0213C112.965 16.0469 112.804 16.071 112.648 16.0938C112.492 16.1136 112.361 16.1307 112.256 16.1449C112.009 16.1761 111.783 16.2287 111.578 16.3026C111.377 16.3764 111.215 16.483 111.093 16.6222C110.973 16.7585 110.914 16.9403 110.914 17.1676C110.914 17.483 111.03 17.7216 111.263 17.8835C111.496 18.0426 111.793 18.1222 112.154 18.1222ZM116.804 19V12.4545H118.035V13.4943H118.104C118.223 13.142 118.433 12.8651 118.734 12.6634C119.038 12.4588 119.382 12.3565 119.765 12.3565C119.845 12.3565 119.939 12.3594 120.047 12.3651C120.157 12.3707 120.244 12.3778 120.307 12.3864V13.6051C120.256 13.5909 120.165 13.5753 120.034 13.5582C119.903 13.5384 119.773 13.5284 119.642 13.5284C119.341 13.5284 119.072 13.5923 118.836 13.7202C118.604 13.8452 118.419 14.0199 118.282 14.2443C118.146 14.4659 118.078 14.7187 118.078 15.0028V19H116.804ZM122.414 21.4545C122.224 21.4545 122.05 21.4389 121.894 21.4077C121.738 21.3793 121.621 21.348 121.545 21.3139L121.851 20.2699C122.084 20.3324 122.292 20.3594 122.474 20.3509C122.655 20.3423 122.816 20.2741 122.955 20.1463C123.097 20.0185 123.222 19.8097 123.33 19.5199L123.488 19.0852L121.093 12.4545H122.456L124.114 17.5341H124.182L125.84 12.4545H127.208L124.51 19.8736C124.385 20.2145 124.226 20.5028 124.033 20.7386C123.84 20.9773 123.61 21.1563 123.343 21.2756C123.076 21.3949 122.766 21.4545 122.414 21.4545Z" fill="white"/>
<path fill-rule="evenodd" clip-rule="evenodd" d="M160 30C168.284 30 175 23.2843 175 15C175 6.71573 168.284 0 160 0C151.716 0 145 6.71573 145 15C145 23.2843 151.716 30 160 30Z" fill="#00BFB3"/>
<path d="M151.25 15L157.5 21.25L168.75 10" stroke="white" stroke-width="3"/>
</svg>
